<svg width="203" height="250" viewBox="0 0 203 250" fill="none" xmlns="http://www.w3.org/2000/svg">
<path d="M42.2756 205V178.818H52.6051C54.5824 178.818 56.2699 179.172 57.6676 179.879C59.0739 180.578 60.1435 181.571 60.8764 182.858C61.6179 184.136 61.9886 185.641 61.9886 187.371C61.9886 189.109 61.6136 190.605 60.8636 191.858C60.1136 193.102 59.027 194.057 57.6037 194.722C56.1889 195.386 54.4759 195.719 52.4645 195.719H45.5483V191.27H51.5696C52.6264 191.27 53.5043 191.125 54.2031 190.835C54.902 190.545 55.4219 190.111 55.7628 189.531C56.1122 188.952 56.2869 188.232 56.2869 187.371C56.2869 186.501 56.1122 185.768 55.7628 185.172C55.4219 184.575 54.8977 184.124 54.1903 183.817C53.4915 183.501 52.6094 183.344 51.544 183.344H47.8111V205H42.2756ZM56.4148 193.085L62.9219 205H56.8111L50.4446 193.085H56.4148ZM74.354 205.384C72.3683 205.384 70.6509 204.962 69.2021 204.118C67.7617 203.266 66.6495 202.081 65.8654 200.564C65.0813 199.038 64.6893 197.27 64.6893 195.259C64.6893 193.23 65.0813 191.457 65.8654 189.94C66.6495 188.415 67.7617 187.23 69.2021 186.386C70.6509 185.534 72.3683 185.108 74.354 185.108C76.3398 185.108 78.0529 185.534 79.4933 186.386C80.9421 187.23 82.0586 188.415 82.8427 189.94C83.6268 191.457 84.0188 193.23 84.0188 195.259C84.0188 197.27 83.6268 199.038 82.8427 200.564C82.0586 202.081 80.9421 203.266 79.4933 204.118C78.0529 204.962 76.3398 205.384 74.354 205.384ZM74.3796 201.165C75.283 201.165 76.0373 200.909 76.6424 200.398C77.2475 199.878 77.7035 199.17 78.0103 198.276C78.3256 197.381 78.4833 196.362 78.4833 195.22C78.4833 194.078 78.3256 193.06 78.0103 192.165C77.7035 191.27 77.2475 190.562 76.6424 190.043C76.0373 189.523 75.283 189.263 74.3796 189.263C73.4677 189.263 72.7006 189.523 72.0785 190.043C71.4648 190.562 71.0004 191.27 70.685 192.165C70.3782 193.06 70.2248 194.078 70.2248 195.22C70.2248 196.362 70.3782 197.381 70.685 198.276C71.0004 199.17 71.4648 199.878 72.0785 200.398C72.7006 200.909 73.4677 201.165 74.3796 201.165ZM100.152 196.639V185.364H105.598V205H100.37V201.433H100.165C99.7219 202.584 98.9847 203.509 97.9535 204.207C96.9308 204.906 95.6822 205.256 94.2077 205.256C92.8952 205.256 91.7404 204.957 90.7433 204.361C89.7461 203.764 88.9663 202.916 88.4038 201.817C87.8498 200.717 87.5685 199.401 87.56 197.866V185.364H93.006V196.895C93.0146 198.054 93.3256 198.97 93.9393 199.643C94.5529 200.317 95.3754 200.653 96.4066 200.653C97.0629 200.653 97.6765 200.504 98.2475 200.206C98.8185 199.899 99.2788 199.447 99.6282 198.851C99.9862 198.254 100.161 197.517 100.152 196.639ZM120.399 185.364V189.455H108.574V185.364H120.399ZM111.259 180.659H116.705V198.966C116.705 199.469 116.781 199.861 116.935 200.142C117.088 200.415 117.301 200.607 117.574 200.717C117.855 200.828 118.179 200.884 118.545 200.884C118.801 200.884 119.057 200.862 119.312 200.82C119.568 200.768 119.764 200.73 119.901 200.705L120.757 204.757C120.484 204.842 120.101 204.94 119.607 205.051C119.112 205.17 118.511 205.243 117.804 205.268C116.491 205.32 115.341 205.145 114.352 204.744C113.372 204.344 112.609 203.722 112.064 202.878C111.518 202.034 111.25 200.969 111.259 199.682V180.659ZM132.685 205.384C130.665 205.384 128.926 204.974 127.469 204.156C126.02 203.33 124.903 202.162 124.119 200.653C123.335 199.136 122.943 197.342 122.943 195.271C122.943 193.251 123.335 191.479 124.119 189.953C124.903 188.428 126.007 187.239 127.43 186.386C128.862 185.534 130.541 185.108 132.467 185.108C133.763 185.108 134.969 185.317 136.085 185.734C137.21 186.143 138.19 186.761 139.026 187.588C139.869 188.415 140.526 189.455 140.994 190.707C141.463 191.952 141.697 193.409 141.697 195.08V196.575H125.116V193.2H136.571C136.571 192.416 136.401 191.722 136.06 191.116C135.719 190.511 135.246 190.038 134.641 189.697C134.044 189.348 133.349 189.173 132.557 189.173C131.73 189.173 130.997 189.365 130.358 189.749C129.727 190.124 129.233 190.631 128.875 191.27C128.517 191.901 128.334 192.604 128.325 193.379V196.588C128.325 197.56 128.504 198.399 128.862 199.107C129.229 199.814 129.744 200.359 130.409 200.743C131.074 201.126 131.862 201.318 132.774 201.318C133.379 201.318 133.933 201.233 134.436 201.062C134.939 200.892 135.369 200.636 135.727 200.295C136.085 199.955 136.358 199.537 136.545 199.043L141.582 199.375C141.327 200.585 140.803 201.642 140.01 202.545C139.226 203.44 138.212 204.139 136.967 204.642C135.732 205.136 134.304 205.384 132.685 205.384ZM161.589 190.963L156.604 191.27C156.518 190.844 156.335 190.46 156.054 190.119C155.773 189.77 155.402 189.493 154.942 189.288C154.49 189.075 153.949 188.969 153.318 188.969C152.474 188.969 151.763 189.148 151.183 189.506C150.604 189.855 150.314 190.324 150.314 190.912C150.314 191.381 150.501 191.777 150.876 192.101C151.251 192.425 151.895 192.685 152.807 192.881L156.361 193.597C158.27 193.989 159.693 194.619 160.631 195.489C161.568 196.358 162.037 197.5 162.037 198.915C162.037 200.202 161.658 201.331 160.899 202.303C160.149 203.274 159.118 204.033 157.805 204.578C156.501 205.115 154.997 205.384 153.293 205.384C150.693 205.384 148.622 204.842 147.08 203.76C145.545 202.669 144.646 201.186 144.382 199.311L149.739 199.03C149.901 199.822 150.293 200.428 150.915 200.845C151.537 201.254 152.334 201.459 153.305 201.459C154.26 201.459 155.027 201.276 155.607 200.909C156.195 200.534 156.493 200.053 156.501 199.464C156.493 198.97 156.284 198.565 155.875 198.25C155.466 197.926 154.835 197.679 153.983 197.509L150.582 196.831C148.665 196.447 147.237 195.783 146.3 194.837C145.371 193.891 144.906 192.685 144.906 191.219C144.906 189.957 145.247 188.871 145.929 187.959C146.619 187.047 147.587 186.344 148.831 185.849C150.084 185.355 151.55 185.108 153.229 185.108C155.709 185.108 157.661 185.632 159.084 186.68C160.516 187.729 161.351 189.156 161.589 190.963Z" fill="#673AB7"/>
<path d="M100.921 36.7917C87.7109 36.7917 75.0419 42.0393 65.701 51.3802C56.3601 60.7211 51.1125 73.39 51.1125 86.6C51.1125 111.794 92.8125 156.39 99.8784 163.803C100.008 163.942 100.165 164.052 100.34 164.127C100.514 164.203 100.702 164.242 100.892 164.242C101.082 164.242 101.27 164.203 101.444 164.127C101.618 164.052 101.775 163.942 101.905 163.803C108.971 156.448 150.671 111.678 150.671 86.6C150.671 73.4001 145.432 60.7399 136.103 51.4007C126.775 42.0614 114.121 36.807 100.921 36.7917ZM100.921 104.38C97.4118 104.346 93.9914 103.274 91.0904 101.3C88.1893 99.3254 85.9374 96.5366 84.6183 93.2848C83.2991 90.033 82.9717 86.4635 83.6773 83.026C84.3828 79.5884 86.0898 76.4365 88.5832 73.9672C91.0766 71.4979 94.245 69.8217 97.6892 69.1496C101.133 68.4775 104.7 68.8396 107.938 70.1903C111.177 71.541 113.944 73.82 115.89 76.74C117.836 79.6601 118.875 83.0908 118.875 86.6C118.875 88.9497 118.41 91.2761 117.505 93.4447C116.601 95.6133 115.276 97.5812 113.606 99.2345C111.936 100.888 109.956 102.194 107.779 103.077C105.601 103.96 103.27 104.403 100.921 104.38Z" fill="#673AB7"/>
</svg>
